<svg width="88" height="24" viewBox="0 0 88 24" fill="none" xmlns="http://www.w3.org/2000/svg">
<path d="M11.104 23L12.224 17.368L13.12 10.712L14.016 17.368L15.136 23H22.176L26.08 7.192H19.808L19.104 13.944L18.592 19.512L17.696 13.976L16.256 7.192H9.92L8.608 13.976L7.648 19.512L7.136 13.944L6.432 7.192H0.16L4.064 23H11.104ZM34.41 23.32C36.97 23.32 38.666 22.104 39.338 21.336L37.77 17.016C37.258 17.816 36.426 18.328 35.722 18.328C34.986 18.328 34.57 17.912 34.57 17.08V11.544H38.41V7.192H34.57V2.84L28.81 5.4V7.192H26.57V11.544H28.81V17.912C28.81 20.984 30.314 23.32 34.41 23.32ZM49.6665 23L50.7865 17.368L51.6825 10.712L52.5785 17.368L53.6985 23H60.7385L64.6425 7.192H58.3705L57.6665 13.944L57.1545 19.512L56.2585 13.976L54.8185 7.192H48.4825L47.1705 13.976L46.2105 19.512L45.6985 13.944L44.9945 7.192H38.7225L42.6265 23H49.6665ZM71.1338 23V15.032C71.1338 12.472 72.3498 11.224 73.6618 11.224C74.5898 11.224 74.9738 11.832 74.9738 12.728C74.9738 13.688 74.3338 14.904 73.7578 15.576H79.0378C79.4858 14.776 80.1258 13.144 80.1258 11.224C80.1258 8.6 79.1018 6.872 76.3498 6.872C73.1178 6.872 71.6138 9.816 71.1338 12.536V7.192H65.3738V23H71.1338ZM84.3848 7.224C86.1128 7.224 87.5208 5.944 87.5208 4.056C87.5208 2.2 86.1128 0.919998 84.3848 0.919998C82.6568 0.919998 81.2488 2.2 81.2488 4.056C81.2488 5.944 82.6568 7.224 84.3848 7.224ZM84.3848 5.016C83.8728 5.016 83.5528 4.664 83.5528 4.056C83.5528 3.448 83.8728 3.128 84.3848 3.128C84.8968 3.128 85.2168 3.448 85.2168 4.056C85.2168 4.664 84.8968 5.016 84.3848 5.016Z" fill="black"/>
</svg>
